<svg xmlns="http://www.w3.org/2000/svg" xmlns:xlink="http://www.w3.org/1999/xlink" width="100" zoomAndPan="magnify" viewBox="0 0 75 37.5" height="50" preserveAspectRatio="xMidYMid meet" version="1.0"><defs><g/><clipPath id="03b7e7efb9"><path d="M 11.378906 5.007812 L 34.367188 5.007812 L 34.367188 30 L 11.378906 30 Z M 11.378906 5.007812 " clip-rule="nonzero"/></clipPath></defs><g clip-path="url(#03b7e7efb9)"><path fill="#0e5446" d="M 11.660156 29.914062 L 11.933594 29.914062 L 11.933594 19.21875 L 16.316406 17.136719 L 16.316406 29.914062 L 19.371094 29.914062 L 19.371094 15.082031 L 16.863281 16.273438 L 16.863281 5.90625 L 23.753906 9.523438 L 23.753906 14.941406 L 21.246094 16.65625 L 21.246094 29.914062 L 24.300781 29.914062 L 24.300781 15.230469 L 28.683594 12.234375 L 28.683594 18.382812 L 26.175781 17.355469 L 26.175781 29.914062 L 29.230469 29.914062 L 29.230469 19.199219 L 33.613281 20.996094 L 33.613281 29.914062 L 34.160156 29.914062 L 34.160156 20.628906 L 29.230469 18.609375 L 29.230469 11.199219 L 24.300781 14.566406 L 24.300781 9.195312 L 16.316406 5 L 16.316406 16.53125 L 11.386719 18.871094 L 11.386719 29.914062 Z M 28.683594 18.972656 L 28.683594 29.367188 L 26.722656 29.367188 L 26.722656 18.167969 Z M 23.753906 15.605469 L 23.753906 29.367188 L 21.792969 29.367188 L 21.792969 16.945312 Z M 16.863281 16.878906 L 18.824219 15.945312 L 18.824219 29.367188 L 16.863281 29.367188 L 16.863281 16.878906 " fill-opacity="1" fill-rule="evenodd"/></g><g fill="#199b80" fill-opacity="1"><g transform="translate(35.047527, 21.992088)"><g><path d="M 0.625 0 L 0.625 -4.796875 L 1.75 -4.796875 L 3.015625 -1.8125 L 3.109375 -1.515625 L 3.1875 -1.8125 L 4.453125 -4.796875 L 5.59375 -4.796875 L 5.59375 0 L 4.671875 0 L 4.671875 -2.65625 L 4.71875 -3.4375 L 3.484375 -0.5 L 2.734375 -0.5 L 1.5 -3.4375 L 1.546875 -2.65625 L 1.546875 0 Z M 0.625 0 "/></g></g></g><g fill="#199b80" fill-opacity="1"><g transform="translate(42.570684, 21.992088)"><g><path d="M 0.625 0 L 0.625 -4.796875 L 1.5625 -4.796875 L 1.5625 0 Z M 0.625 0 "/></g></g></g><g fill="#199b80" fill-opacity="1"><g transform="translate(46.061837, 21.992088)"><g><path d="M 3.9375 0 L 1.5 -3.375 L 1.5625 -2.984375 L 1.5625 0 L 0.625 0 L 0.625 -4.796875 L 1.546875 -4.796875 L 4 -1.421875 L 3.9375 -1.796875 L 3.9375 -4.796875 L 4.890625 -4.796875 L 4.890625 0 Z M 3.9375 0 "/></g></g></g><g fill="#199b80" fill-opacity="1"><g transform="translate(52.874657, 21.992088)"><g><path d="M 1.53125 0 L 1.53125 -3.9375 L 0.140625 -3.9375 L 0.140625 -4.796875 L 3.859375 -4.796875 L 3.859375 -3.9375 L 2.46875 -3.9375 L 2.46875 0 Z M 1.53125 0 "/></g></g></g><g fill="#199b80" fill-opacity="1"><g transform="translate(35.334291, 29.962573)"><g><path d="M 0.296875 0 L 0.28125 -0.609375 L 2.78125 -3.96875 L 0.453125 -3.96875 L 0.453125 -4.796875 L 3.921875 -4.796875 L 3.921875 -4.125 L 1.46875 -0.828125 L 3.984375 -0.828125 L 3.984375 0 Z M 0.296875 0 "/></g></g></g><g fill="#199b80" fill-opacity="1"><g transform="translate(40.063244, 29.962573)"><g><path d="M 0.625 0 L 0.625 -4.796875 L 1.5625 -4.796875 L 1.5625 0 Z M 0.625 0 "/></g></g></g><g fill="#199b80" fill-opacity="1"><g transform="translate(42.769431, 29.962573)"><g><path d="M 0.625 0 L 0.625 -4.796875 L 1.5625 -4.796875 L 1.5625 -0.84375 L 3.609375 -0.84375 L 3.34375 0 Z M 0.625 0 "/></g></g></g><g fill="#199b80" fill-opacity="1"><g transform="translate(47.038357, 29.962573)"><g><path d="M 0.625 0 L 0.625 -4.796875 L 1.5625 -4.796875 L 1.5625 -0.84375 L 3.609375 -0.84375 L 3.34375 0 Z M 0.625 0 "/></g></g></g><g fill="#199b80" fill-opacity="1"><g transform="translate(51.307284, 29.962573)"><g><path d="M 2.625 0.078125 C 2.257812 0.078125 1.929688 0.015625 1.640625 -0.109375 C 1.359375 -0.234375 1.113281 -0.40625 0.90625 -0.625 C 0.707031 -0.84375 0.550781 -1.101562 0.4375 -1.40625 C 0.332031 -1.707031 0.28125 -2.035156 0.28125 -2.390625 C 0.28125 -2.742188 0.332031 -3.066406 0.4375 -3.359375 C 0.550781 -3.660156 0.707031 -3.921875 0.90625 -4.140625 C 1.101562 -4.367188 1.34375 -4.546875 1.625 -4.671875 C 1.914062 -4.796875 2.25 -4.859375 2.625 -4.859375 C 2.988281 -4.859375 3.316406 -4.796875 3.609375 -4.671875 C 3.898438 -4.554688 4.144531 -4.390625 4.34375 -4.171875 C 4.550781 -3.953125 4.707031 -3.691406 4.8125 -3.390625 C 4.925781 -3.085938 4.984375 -2.753906 4.984375 -2.390625 C 4.984375 -2.046875 4.929688 -1.71875 4.828125 -1.40625 C 4.722656 -1.101562 4.566406 -0.84375 4.359375 -0.625 C 4.160156 -0.40625 3.914062 -0.234375 3.625 -0.109375 C 3.332031 0.015625 3 0.078125 2.625 0.078125 Z M 2.625 -0.78125 C 2.851562 -0.78125 3.050781 -0.820312 3.21875 -0.90625 C 3.394531 -1 3.539062 -1.117188 3.65625 -1.265625 C 3.769531 -1.410156 3.851562 -1.578125 3.90625 -1.765625 C 3.957031 -1.960938 3.984375 -2.171875 3.984375 -2.390625 C 3.984375 -2.597656 3.957031 -2.800781 3.90625 -3 C 3.851562 -3.195312 3.769531 -3.367188 3.65625 -3.515625 C 3.539062 -3.660156 3.398438 -3.78125 3.234375 -3.875 C 3.066406 -3.96875 2.863281 -4.015625 2.625 -4.015625 C 2.382812 -4.015625 2.179688 -3.96875 2.015625 -3.875 C 1.847656 -3.78125 1.707031 -3.65625 1.59375 -3.5 C 1.488281 -3.351562 1.410156 -3.179688 1.359375 -2.984375 C 1.304688 -2.796875 1.28125 -2.597656 1.28125 -2.390625 C 1.28125 -2.179688 1.304688 -1.976562 1.359375 -1.78125 C 1.410156 -1.59375 1.488281 -1.421875 1.59375 -1.265625 C 1.707031 -1.117188 1.847656 -1 2.015625 -0.90625 C 2.191406 -0.820312 2.394531 -0.78125 2.625 -0.78125 Z M 2.625 -0.78125 "/></g></g></g></svg>