<svg xmlns="http://www.w3.org/2000/svg" xmlns:xlink="http://www.w3.org/1999/xlink" width="500" zoomAndPan="magnify" viewBox="0 0 375 374.999991" height="500" preserveAspectRatio="xMidYMid meet" version="1.0"><defs><g/><clipPath id="7e561457a2"><path d="M 96.550781 140.515625 L 175.640625 140.515625 L 175.640625 227.277344 L 96.550781 227.277344 Z M 96.550781 140.515625 " clip-rule="nonzero"/></clipPath></defs><g clip-path="url(#7e561457a2)"><path fill="#0e5446" d="M 97.546875 227.238281 L 98.5 227.238281 L 98.5 189.996094 L 113.753906 182.753906 L 113.753906 227.238281 L 124.398438 227.238281 L 124.398438 175.589844 L 115.664062 179.738281 L 115.664062 143.640625 L 139.65625 156.242188 L 139.65625 175.101562 L 130.917969 181.078125 L 130.917969 227.238281 L 141.5625 227.238281 L 141.5625 176.105469 L 156.816406 165.683594 L 156.816406 187.085938 L 148.082031 183.503906 L 148.082031 227.238281 L 158.722656 227.238281 L 158.722656 189.925781 L 173.980469 196.179688 L 173.980469 227.238281 L 175.886719 227.238281 L 175.886719 194.90625 L 158.722656 187.871094 L 158.722656 162.074219 L 141.5625 173.800781 L 141.5625 155.097656 L 113.753906 140.492188 L 113.753906 180.644531 L 96.59375 188.792969 L 96.59375 227.238281 Z M 156.816406 189.140625 L 156.816406 225.332031 L 149.988281 225.332031 L 149.988281 186.339844 Z M 139.65625 177.410156 L 139.65625 225.332031 L 132.824219 225.332031 L 132.824219 182.078125 Z M 115.664062 181.84375 L 122.492188 178.605469 L 122.492188 225.332031 L 115.664062 225.332031 L 115.664062 181.84375 " fill-opacity="1" fill-rule="evenodd"/></g><g fill="#199b80" fill-opacity="1"><g transform="translate(178.961644, 199.646309)"><g><path d="M 2.171875 0 L 2.171875 -16.6875 L 6.109375 -16.6875 L 10.515625 -6.34375 L 10.8125 -5.296875 L 11.125 -6.34375 L 15.53125 -16.6875 L 19.484375 -16.6875 L 19.484375 0 L 16.265625 0 L 16.265625 -9.265625 L 16.421875 -11.953125 L 12.109375 -1.71875 L 9.515625 -1.71875 L 5.203125 -11.953125 L 5.375 -9.265625 L 5.375 0 Z M 2.171875 0 "/></g></g></g><g fill="#199b80" fill-opacity="1"><g transform="translate(205.153738, 199.646309)"><g><path d="M 2.171875 0 L 2.171875 -16.6875 L 5.4375 -16.6875 L 5.4375 0 Z M 2.171875 0 "/></g></g></g><g fill="#199b80" fill-opacity="1"><g transform="translate(217.308289, 199.646309)"><g><path d="M 13.734375 0 L 5.203125 -11.734375 L 5.4375 -10.390625 L 5.4375 0 L 2.171875 0 L 2.171875 -16.6875 L 5.390625 -16.6875 L 13.953125 -4.96875 L 13.734375 -6.265625 L 13.734375 -16.6875 L 17.015625 -16.6875 L 17.015625 0 Z M 13.734375 0 "/></g></g></g><g fill="#199b80" fill-opacity="1"><g transform="translate(241.027321, 199.646309)"><g><path d="M 5.328125 0 L 5.328125 -13.734375 L 0.5 -13.734375 L 0.5 -16.6875 L 13.4375 -16.6875 L 13.4375 -13.734375 L 8.59375 -13.734375 L 8.59375 0 Z M 5.328125 0 "/></g></g></g><g fill="#199b80" fill-opacity="1"><g transform="translate(179.960006, 227.39578)"><g><path d="M 1.015625 0 L 0.984375 -2.125 L 9.6875 -13.828125 L 1.578125 -13.828125 L 1.578125 -16.6875 L 13.671875 -16.6875 L 13.671875 -14.375 L 5.09375 -2.875 L 13.90625 -2.875 L 13.90625 0 Z M 1.015625 0 "/></g></g></g><g fill="#199b80" fill-opacity="1"><g transform="translate(196.423994, 227.39578)"><g><path d="M 2.171875 0 L 2.171875 -16.6875 L 5.4375 -16.6875 L 5.4375 0 Z M 2.171875 0 "/></g></g></g><g fill="#199b80" fill-opacity="1"><g transform="translate(205.845665, 227.39578)"><g><path d="M 2.171875 0 L 2.171875 -16.6875 L 5.4375 -16.6875 L 5.4375 -2.9375 L 12.5625 -2.9375 L 11.640625 0 Z M 2.171875 0 "/></g></g></g><g fill="#199b80" fill-opacity="1"><g transform="translate(220.708056, 227.39578)"><g><path d="M 2.171875 0 L 2.171875 -16.6875 L 5.4375 -16.6875 L 5.4375 -2.9375 L 12.5625 -2.9375 L 11.640625 0 Z M 2.171875 0 "/></g></g></g><g fill="#199b80" fill-opacity="1"><g transform="translate(235.570447, 227.39578)"><g><path d="M 9.140625 0.28125 C 7.867188 0.28125 6.726562 0.0664062 5.71875 -0.359375 C 4.71875 -0.796875 3.867188 -1.398438 3.171875 -2.171875 C 2.472656 -2.941406 1.929688 -3.851562 1.546875 -4.90625 C 1.171875 -5.957031 0.984375 -7.09375 0.984375 -8.3125 C 0.984375 -9.539062 1.164062 -10.675781 1.53125 -11.71875 C 1.90625 -12.769531 2.4375 -13.679688 3.125 -14.453125 C 3.820312 -15.234375 4.675781 -15.84375 5.6875 -16.28125 C 6.695312 -16.71875 7.847656 -16.9375 9.140625 -16.9375 C 10.398438 -16.9375 11.535156 -16.722656 12.546875 -16.296875 C 13.554688 -15.878906 14.421875 -15.289062 15.140625 -14.53125 C 15.859375 -13.769531 16.40625 -12.859375 16.78125 -11.796875 C 17.164062 -10.742188 17.359375 -9.59375 17.359375 -8.34375 C 17.359375 -7.113281 17.175781 -5.972656 16.8125 -4.921875 C 16.445312 -3.867188 15.910156 -2.957031 15.203125 -2.1875 C 14.492188 -1.414062 13.628906 -0.8125 12.609375 -0.375 C 11.597656 0.0625 10.441406 0.28125 9.140625 0.28125 Z M 9.140625 -2.703125 C 9.941406 -2.703125 10.640625 -2.851562 11.234375 -3.15625 C 11.835938 -3.46875 12.332031 -3.882812 12.71875 -4.40625 C 13.113281 -4.925781 13.410156 -5.519531 13.609375 -6.1875 C 13.804688 -6.863281 13.90625 -7.570312 13.90625 -8.3125 C 13.90625 -9.050781 13.8125 -9.757812 13.625 -10.4375 C 13.4375 -11.125 13.144531 -11.726562 12.75 -12.25 C 12.351562 -12.769531 11.859375 -13.1875 11.265625 -13.5 C 10.671875 -13.8125 9.960938 -13.96875 9.140625 -13.96875 C 8.328125 -13.96875 7.625 -13.8125 7.03125 -13.5 C 6.445312 -13.1875 5.960938 -12.765625 5.578125 -12.234375 C 5.191406 -11.710938 4.90625 -11.113281 4.71875 -10.4375 C 4.539062 -9.757812 4.453125 -9.050781 4.453125 -8.3125 C 4.453125 -7.59375 4.546875 -6.894531 4.734375 -6.21875 C 4.921875 -5.539062 5.207031 -4.941406 5.59375 -4.421875 C 5.976562 -3.910156 6.460938 -3.492188 7.046875 -3.171875 C 7.640625 -2.859375 8.335938 -2.703125 9.140625 -2.703125 Z M 9.140625 -2.703125 "/></g></g></g></svg>