<svg xmlns="http://www.w3.org/2000/svg" xmlns:xlink="http://www.w3.org/1999/xlink" width="500" zoomAndPan="magnify" viewBox="0 0 375 374.999991" height="500" preserveAspectRatio="xMidYMid meet" version="1.0"><defs><g/><clipPath id="667cdc92fc"><path d="M 141.511719 105.84375 L 233.761719 105.84375 L 233.761719 206.34375 L 141.511719 206.34375 Z M 141.511719 105.84375 " clip-rule="nonzero"/></clipPath></defs><g clip-path="url(#667cdc92fc)"><path fill="#0e5446" d="M 142.660156 206.332031 L 143.761719 206.332031 L 143.761719 163.175781 L 161.441406 154.78125 L 161.441406 206.332031 L 173.773438 206.332031 L 173.773438 146.484375 L 163.652344 151.289062 L 163.652344 109.464844 L 191.453125 124.066406 L 191.453125 145.917969 L 181.328125 152.84375 L 181.328125 206.332031 L 193.660156 206.332031 L 193.660156 147.082031 L 211.335938 135.003906 L 211.335938 159.804688 L 201.214844 155.652344 L 201.214844 206.332031 L 213.550781 206.332031 L 213.550781 163.09375 L 231.226562 170.34375 L 231.226562 206.332031 L 233.433594 206.332031 L 233.433594 168.867188 L 213.550781 160.710938 L 213.550781 130.824219 L 193.660156 144.410156 L 193.660156 122.734375 L 161.441406 105.8125 L 161.441406 152.339844 L 141.554688 161.78125 L 141.554688 206.332031 Z M 211.335938 162.1875 L 211.335938 204.121094 L 203.425781 204.121094 L 203.425781 158.941406 Z M 191.453125 148.59375 L 191.453125 204.121094 L 183.535156 204.121094 L 183.535156 154.003906 Z M 163.652344 153.734375 L 171.566406 149.976562 L 171.566406 204.121094 L 163.652344 204.121094 L 163.652344 153.734375 " fill-opacity="1" fill-rule="evenodd"/></g><g fill="#199b80" fill-opacity="1"><g transform="translate(139.227359, 232.623208)"><g><path d="M 2.75 0 L 2.75 -21.203125 L 7.75 -21.203125 L 13.359375 -8.046875 L 13.734375 -6.734375 L 14.125 -8.046875 L 19.734375 -21.203125 L 24.765625 -21.203125 L 24.765625 0 L 20.65625 0 L 20.65625 -11.765625 L 20.859375 -15.171875 L 15.390625 -2.1875 L 12.09375 -2.1875 L 6.609375 -15.171875 L 6.828125 -11.765625 L 6.828125 0 Z M 2.75 0 "/></g></g></g><g fill="#199b80" fill-opacity="1"><g transform="translate(172.510761, 232.623208)"><g><path d="M 2.75 0 L 2.75 -21.203125 L 6.921875 -21.203125 L 6.921875 0 Z M 2.75 0 "/></g></g></g><g fill="#199b80" fill-opacity="1"><g transform="translate(187.956064, 232.623208)"><g><path d="M 17.453125 0 L 6.609375 -14.90625 L 6.921875 -13.203125 L 6.921875 0 L 2.75 0 L 2.75 -21.203125 L 6.859375 -21.203125 L 17.71875 -6.3125 L 17.453125 -7.96875 L 17.453125 -21.203125 L 21.609375 -21.203125 L 21.609375 0 Z M 17.453125 0 "/></g></g></g><g fill="#199b80" fill-opacity="1"><g transform="translate(218.096841, 232.623208)"><g><path d="M 6.765625 0 L 6.765625 -17.453125 L 0.625 -17.453125 L 0.625 -21.203125 L 17.0625 -21.203125 L 17.0625 -17.453125 L 10.921875 -17.453125 L 10.921875 0 Z M 6.765625 0 "/></g></g></g><g fill="#199b80" fill-opacity="1"><g transform="translate(140.496023, 260.151151)"><g><path d="M 1.28125 0 L 1.25 -2.6875 L 12.296875 -17.578125 L 2 -17.578125 L 2 -21.203125 L 17.359375 -21.203125 L 17.359375 -18.265625 L 6.46875 -3.65625 L 17.65625 -3.65625 L 17.65625 0 Z M 1.28125 0 "/></g></g></g><g fill="#199b80" fill-opacity="1"><g transform="translate(161.417509, 260.151151)"><g><path d="M 2.75 0 L 2.75 -21.203125 L 6.921875 -21.203125 L 6.921875 0 Z M 2.75 0 "/></g></g></g><g fill="#199b80" fill-opacity="1"><g transform="translate(173.390025, 260.151151)"><g><path d="M 2.75 0 L 2.75 -21.203125 L 6.921875 -21.203125 L 6.921875 -3.75 L 15.953125 -3.75 L 14.796875 0 Z M 2.75 0 "/></g></g></g><g fill="#199b80" fill-opacity="1"><g transform="translate(192.276294, 260.151151)"><g><path d="M 2.75 0 L 2.75 -21.203125 L 6.921875 -21.203125 L 6.921875 -3.75 L 15.953125 -3.75 L 14.796875 0 Z M 2.75 0 "/></g></g></g><g fill="#199b80" fill-opacity="1"><g transform="translate(211.162564, 260.151151)"><g><path d="M 11.609375 0.359375 C 9.992188 0.359375 8.546875 0.0859375 7.265625 -0.453125 C 5.992188 -1.003906 4.910156 -1.769531 4.015625 -2.75 C 3.128906 -3.726562 2.445312 -4.882812 1.96875 -6.21875 C 1.488281 -7.5625 1.25 -9.007812 1.25 -10.5625 C 1.25 -12.125 1.484375 -13.566406 1.953125 -14.890625 C 2.429688 -16.222656 3.109375 -17.378906 3.984375 -18.359375 C 4.859375 -19.347656 5.9375 -20.125 7.21875 -20.6875 C 8.507812 -21.25 9.972656 -21.53125 11.609375 -21.53125 C 13.210938 -21.53125 14.65625 -21.257812 15.9375 -20.71875 C 17.226562 -20.175781 18.328125 -19.421875 19.234375 -18.453125 C 20.140625 -17.484375 20.835938 -16.332031 21.328125 -15 C 21.816406 -13.664062 22.0625 -12.195312 22.0625 -10.59375 C 22.0625 -9.039062 21.828125 -7.59375 21.359375 -6.25 C 20.890625 -4.914062 20.207031 -3.757812 19.3125 -2.78125 C 18.414062 -1.800781 17.320312 -1.03125 16.03125 -0.46875 C 14.738281 0.0820312 13.265625 0.359375 11.609375 0.359375 Z M 11.609375 -3.4375 C 12.628906 -3.4375 13.519531 -3.628906 14.28125 -4.015625 C 15.039062 -4.410156 15.671875 -4.9375 16.171875 -5.59375 C 16.671875 -6.257812 17.039062 -7.019531 17.28125 -7.875 C 17.53125 -8.726562 17.65625 -9.625 17.65625 -10.5625 C 17.65625 -11.5 17.535156 -12.398438 17.296875 -13.265625 C 17.054688 -14.140625 16.6875 -14.90625 16.1875 -15.5625 C 15.695312 -16.226562 15.070312 -16.757812 14.3125 -17.15625 C 13.550781 -17.550781 12.648438 -17.75 11.609375 -17.75 C 10.578125 -17.75 9.6875 -17.550781 8.9375 -17.15625 C 8.1875 -16.757812 7.566406 -16.222656 7.078125 -15.546875 C 6.585938 -14.878906 6.226562 -14.113281 6 -13.25 C 5.769531 -12.394531 5.65625 -11.5 5.65625 -10.5625 C 5.65625 -9.644531 5.773438 -8.753906 6.015625 -7.890625 C 6.253906 -7.035156 6.617188 -6.28125 7.109375 -5.625 C 7.597656 -4.96875 8.21875 -4.4375 8.96875 -4.03125 C 9.71875 -3.632812 10.597656 -3.4375 11.609375 -3.4375 Z M 11.609375 -3.4375 "/></g></g></g></svg>