<svg xmlns="http://www.w3.org/2000/svg" xmlns:xlink="http://www.w3.org/1999/xlink" width="50" zoomAndPan="magnify" viewBox="0 0 37.5 30.000001" height="40" preserveAspectRatio="xMidYMid meet" version="1.0"><defs><g/><clipPath id="89bef53827"><path d="M 8.210938 9.195312 L 17.273438 9.195312 L 17.273438 19.082031 L 8.210938 19.082031 Z M 8.210938 9.195312 " clip-rule="nonzero"/></clipPath></defs><g clip-path="url(#89bef53827)"><path fill="#0e5446" d="M 8.324219 19.015625 L 8.429688 19.015625 L 8.429688 14.796875 L 10.15625 13.976562 L 10.15625 19.015625 L 11.363281 19.015625 L 11.363281 13.167969 L 10.375 13.636719 L 10.375 9.550781 L 13.089844 10.976562 L 13.089844 13.113281 L 12.101562 13.789062 L 12.101562 19.015625 L 13.304688 19.015625 L 13.304688 13.226562 L 15.03125 12.046875 L 15.03125 14.46875 L 14.042969 14.0625 L 14.042969 19.015625 L 15.25 19.015625 L 15.25 14.789062 L 16.976562 15.5 L 16.976562 19.015625 L 17.191406 19.015625 L 17.191406 15.355469 L 15.25 14.558594 L 15.25 11.636719 L 13.304688 12.964844 L 13.304688 10.847656 L 10.15625 9.195312 L 10.15625 13.738281 L 8.214844 14.660156 L 8.214844 19.015625 Z M 15.03125 14.703125 L 15.03125 18.796875 L 14.257812 18.796875 L 14.257812 14.382812 Z M 13.089844 13.375 L 13.089844 18.796875 L 12.316406 18.796875 L 12.316406 13.902344 Z M 10.375 13.875 L 11.148438 13.507812 L 11.148438 18.796875 L 10.375 18.796875 L 10.375 13.875 " fill-opacity="1" fill-rule="evenodd"/></g><g fill="#199b80" fill-opacity="1"><g transform="translate(17.541403, 15.891267)"><g><path d="M 0.25 0 L 0.25 -1.890625 L 0.6875 -1.890625 L 1.1875 -0.71875 L 1.21875 -0.59375 L 1.265625 -0.71875 L 1.765625 -1.890625 L 2.203125 -1.890625 L 2.203125 0 L 1.84375 0 L 1.84375 -1.046875 L 1.859375 -1.359375 L 1.375 -0.1875 L 1.078125 -0.1875 L 0.59375 -1.359375 L 0.609375 -1.046875 L 0.609375 0 Z M 0.25 0 "/></g></g></g><g fill="#199b80" fill-opacity="1"><g transform="translate(20.506711, 15.891267)"><g><path d="M 0.25 0 L 0.25 -1.890625 L 0.625 -1.890625 L 0.625 0 Z M 0.25 0 "/></g></g></g><g fill="#199b80" fill-opacity="1"><g transform="translate(21.882775, 15.891267)"><g><path d="M 1.5625 0 L 0.59375 -1.328125 L 0.625 -1.171875 L 0.625 0 L 0.25 0 L 0.25 -1.890625 L 0.609375 -1.890625 L 1.578125 -0.5625 L 1.5625 -0.703125 L 1.5625 -1.890625 L 1.921875 -1.890625 L 1.921875 0 Z M 1.5625 0 "/></g></g></g><g fill="#199b80" fill-opacity="1"><g transform="translate(24.568099, 15.891267)"><g><path d="M 0.609375 0 L 0.609375 -1.5625 L 0.0625 -1.5625 L 0.0625 -1.890625 L 1.515625 -1.890625 L 1.515625 -1.5625 L 0.96875 -1.5625 L 0.96875 0 Z M 0.609375 0 "/></g></g></g><g fill="#199b80" fill-opacity="1"><g transform="translate(17.654434, 19.032893)"><g><path d="M 0.109375 0 L 0.109375 -0.234375 L 1.09375 -1.5625 L 0.171875 -1.5625 L 0.171875 -1.890625 L 1.546875 -1.890625 L 1.546875 -1.625 L 0.578125 -0.328125 L 1.578125 -0.328125 L 1.578125 0 Z M 0.109375 0 "/></g></g></g><g fill="#199b80" fill-opacity="1"><g transform="translate(19.518386, 19.032893)"><g><path d="M 0.25 0 L 0.25 -1.890625 L 0.625 -1.890625 L 0.625 0 Z M 0.25 0 "/></g></g></g><g fill="#199b80" fill-opacity="1"><g transform="translate(20.58505, 19.032893)"><g><path d="M 0.25 0 L 0.25 -1.890625 L 0.625 -1.890625 L 0.625 -0.328125 L 1.421875 -0.328125 L 1.3125 0 Z M 0.25 0 "/></g></g></g><g fill="#199b80" fill-opacity="1"><g transform="translate(22.267679, 19.032893)"><g><path d="M 0.25 0 L 0.25 -1.890625 L 0.625 -1.890625 L 0.625 -0.328125 L 1.421875 -0.328125 L 1.3125 0 Z M 0.25 0 "/></g></g></g><g fill="#199b80" fill-opacity="1"><g transform="translate(23.950308, 19.032893)"><g><path d="M 1.03125 0.03125 C 0.882812 0.03125 0.753906 0.0078125 0.640625 -0.03125 C 0.535156 -0.0820312 0.441406 -0.148438 0.359375 -0.234375 C 0.273438 -0.328125 0.210938 -0.429688 0.171875 -0.546875 C 0.128906 -0.671875 0.109375 -0.800781 0.109375 -0.9375 C 0.109375 -1.082031 0.128906 -1.210938 0.171875 -1.328125 C 0.210938 -1.441406 0.269531 -1.539062 0.34375 -1.625 C 0.425781 -1.71875 0.523438 -1.789062 0.640625 -1.84375 C 0.753906 -1.894531 0.882812 -1.921875 1.03125 -1.921875 C 1.175781 -1.921875 1.304688 -1.894531 1.421875 -1.84375 C 1.535156 -1.800781 1.632812 -1.734375 1.71875 -1.640625 C 1.800781 -1.554688 1.863281 -1.453125 1.90625 -1.328125 C 1.945312 -1.210938 1.96875 -1.085938 1.96875 -0.953125 C 1.96875 -0.804688 1.945312 -0.671875 1.90625 -0.546875 C 1.863281 -0.429688 1.800781 -0.332031 1.71875 -0.25 C 1.644531 -0.164062 1.550781 -0.0976562 1.4375 -0.046875 C 1.320312 0.00390625 1.1875 0.03125 1.03125 0.03125 Z M 1.03125 -0.3125 C 1.125 -0.3125 1.203125 -0.328125 1.265625 -0.359375 C 1.335938 -0.390625 1.394531 -0.4375 1.4375 -0.5 C 1.488281 -0.5625 1.523438 -0.628906 1.546875 -0.703125 C 1.566406 -0.773438 1.578125 -0.851562 1.578125 -0.9375 C 1.578125 -1.019531 1.566406 -1.097656 1.546875 -1.171875 C 1.523438 -1.253906 1.488281 -1.328125 1.4375 -1.390625 C 1.394531 -1.453125 1.335938 -1.5 1.265625 -1.53125 C 1.203125 -1.5625 1.125 -1.578125 1.03125 -1.578125 C 0.9375 -1.578125 0.859375 -1.5625 0.796875 -1.53125 C 0.734375 -1.5 0.675781 -1.453125 0.625 -1.390625 C 0.582031 -1.328125 0.550781 -1.253906 0.53125 -1.171875 C 0.507812 -1.097656 0.5 -1.019531 0.5 -0.9375 C 0.5 -0.851562 0.507812 -0.773438 0.53125 -0.703125 C 0.550781 -0.628906 0.582031 -0.5625 0.625 -0.5 C 0.675781 -0.445312 0.734375 -0.398438 0.796875 -0.359375 C 0.867188 -0.328125 0.945312 -0.3125 1.03125 -0.3125 Z M 1.03125 -0.3125 "/></g></g></g></svg>