<svg xmlns="http://www.w3.org/2000/svg" xmlns:xlink="http://www.w3.org/1999/xlink" width="100" zoomAndPan="magnify" viewBox="0 0 75 74.999997" height="100" preserveAspectRatio="xMidYMid meet" version="1.0"><defs><g/><clipPath id="9da38abbfa"><path d="M 8.875 22.710938 L 34 22.710938 L 34 50.191406 L 8.875 50.191406 Z M 8.875 22.710938 " clip-rule="nonzero"/></clipPath></defs><g clip-path="url(#9da38abbfa)"><path fill="#0e5446" d="M 9.1875 50.003906 L 9.488281 50.003906 L 9.488281 38.285156 L 14.285156 36.003906 L 14.285156 50.003906 L 17.636719 50.003906 L 17.636719 33.75 L 14.886719 35.054688 L 14.886719 23.695312 L 22.4375 27.660156 L 22.4375 33.597656 L 19.6875 35.476562 L 19.6875 50.003906 L 23.039062 50.003906 L 23.039062 33.914062 L 27.839844 30.632812 L 27.839844 37.367188 L 25.089844 36.242188 L 25.089844 50.003906 L 28.4375 50.003906 L 28.4375 38.261719 L 33.238281 40.230469 L 33.238281 50.003906 L 33.839844 50.003906 L 33.839844 39.828125 L 28.4375 37.613281 L 28.4375 29.496094 L 23.039062 33.1875 L 23.039062 27.300781 L 14.285156 22.703125 L 14.285156 35.339844 L 8.886719 37.90625 L 8.886719 50.003906 Z M 27.839844 38.015625 L 27.839844 49.402344 L 25.6875 49.402344 L 25.6875 37.132812 Z M 22.4375 34.324219 L 22.4375 49.402344 L 20.289062 49.402344 L 20.289062 35.792969 Z M 14.886719 35.71875 L 17.035156 34.699219 L 17.035156 49.402344 L 14.886719 49.402344 L 14.886719 35.71875 " fill-opacity="1" fill-rule="evenodd"/></g><g fill="#199b80" fill-opacity="1"><g transform="translate(34.812689, 41.322873)"><g><path d="M 0.6875 0 L 0.6875 -5.25 L 1.921875 -5.25 L 3.296875 -2 L 3.40625 -1.671875 L 3.5 -2 L 4.875 -5.25 L 6.125 -5.25 L 6.125 0 L 5.109375 0 L 5.109375 -2.90625 L 5.15625 -3.75 L 3.8125 -0.546875 L 2.984375 -0.546875 L 1.640625 -3.75 L 1.6875 -2.90625 L 1.6875 0 Z M 0.6875 0 "/></g></g></g><g fill="#199b80" fill-opacity="1"><g transform="translate(43.056245, 41.322873)"><g><path d="M 0.6875 0 L 0.6875 -5.25 L 1.703125 -5.25 L 1.703125 0 Z M 0.6875 0 "/></g></g></g><g fill="#199b80" fill-opacity="1"><g transform="translate(46.881703, 41.322873)"><g><path d="M 4.3125 0 L 1.640625 -3.6875 L 1.703125 -3.265625 L 1.703125 0 L 0.6875 0 L 0.6875 -5.25 L 1.703125 -5.25 L 4.390625 -1.5625 L 4.3125 -1.96875 L 4.3125 -5.25 L 5.34375 -5.25 L 5.34375 0 Z M 4.3125 0 "/></g></g></g><g fill="#199b80" fill-opacity="1"><g transform="translate(54.346901, 41.322873)"><g><path d="M 1.671875 0 L 1.671875 -4.3125 L 0.15625 -4.3125 L 0.15625 -5.25 L 4.21875 -5.25 L 4.21875 -4.3125 L 2.703125 -4.3125 L 2.703125 0 Z M 1.671875 0 "/></g></g></g><g fill="#199b80" fill-opacity="1"><g transform="translate(35.126908, 50.056593)"><g><path d="M 0.3125 0 L 0.3125 -0.671875 L 3.046875 -4.34375 L 0.5 -4.34375 L 0.5 -5.25 L 4.296875 -5.25 L 4.296875 -4.515625 L 1.59375 -0.90625 L 4.375 -0.90625 L 4.375 0 Z M 0.3125 0 "/></g></g></g><g fill="#199b80" fill-opacity="1"><g transform="translate(40.308694, 50.056593)"><g><path d="M 0.6875 0 L 0.6875 -5.25 L 1.703125 -5.25 L 1.703125 0 Z M 0.6875 0 "/></g></g></g><g fill="#199b80" fill-opacity="1"><g transform="translate(43.27402, 50.056593)"><g><path d="M 0.6875 0 L 0.6875 -5.25 L 1.703125 -5.25 L 1.703125 -0.921875 L 3.953125 -0.921875 L 3.65625 0 Z M 0.6875 0 "/></g></g></g><g fill="#199b80" fill-opacity="1"><g transform="translate(47.951727, 50.056593)"><g><path d="M 0.6875 0 L 0.6875 -5.25 L 1.703125 -5.25 L 1.703125 -0.921875 L 3.953125 -0.921875 L 3.65625 0 Z M 0.6875 0 "/></g></g></g><g fill="#199b80" fill-opacity="1"><g transform="translate(52.629435, 50.056593)"><g><path d="M 2.875 0.09375 C 2.476562 0.09375 2.117188 0.0234375 1.796875 -0.109375 C 1.484375 -0.242188 1.21875 -0.429688 1 -0.671875 C 0.78125 -0.921875 0.609375 -1.207031 0.484375 -1.53125 C 0.367188 -1.863281 0.3125 -2.222656 0.3125 -2.609375 C 0.3125 -2.992188 0.367188 -3.347656 0.484375 -3.671875 C 0.597656 -4.003906 0.765625 -4.289062 0.984375 -4.53125 C 1.203125 -4.78125 1.46875 -4.972656 1.78125 -5.109375 C 2.101562 -5.253906 2.46875 -5.328125 2.875 -5.328125 C 3.269531 -5.328125 3.625 -5.257812 3.9375 -5.125 C 4.257812 -4.988281 4.53125 -4.800781 4.75 -4.5625 C 4.976562 -4.320312 5.148438 -4.035156 5.265625 -3.703125 C 5.390625 -3.378906 5.453125 -3.019531 5.453125 -2.625 C 5.453125 -2.238281 5.394531 -1.878906 5.28125 -1.546875 C 5.164062 -1.210938 4.992188 -0.925781 4.765625 -0.6875 C 4.546875 -0.445312 4.273438 -0.253906 3.953125 -0.109375 C 3.640625 0.0234375 3.28125 0.09375 2.875 0.09375 Z M 2.875 -0.859375 C 3.125 -0.859375 3.34375 -0.90625 3.53125 -1 C 3.71875 -1.09375 3.875 -1.21875 4 -1.375 C 4.125 -1.539062 4.21875 -1.726562 4.28125 -1.9375 C 4.34375 -2.15625 4.375 -2.378906 4.375 -2.609375 C 4.375 -2.847656 4.34375 -3.070312 4.28125 -3.28125 C 4.21875 -3.5 4.125 -3.6875 4 -3.84375 C 3.882812 -4.007812 3.734375 -4.140625 3.546875 -4.234375 C 3.359375 -4.335938 3.132812 -4.390625 2.875 -4.390625 C 2.613281 -4.390625 2.390625 -4.335938 2.203125 -4.234375 C 2.023438 -4.140625 1.875 -4.007812 1.75 -3.84375 C 1.625 -3.675781 1.535156 -3.488281 1.484375 -3.28125 C 1.429688 -3.070312 1.40625 -2.847656 1.40625 -2.609375 C 1.40625 -2.390625 1.429688 -2.171875 1.484375 -1.953125 C 1.546875 -1.742188 1.632812 -1.554688 1.75 -1.390625 C 1.875 -1.222656 2.03125 -1.09375 2.21875 -1 C 2.40625 -0.90625 2.625 -0.859375 2.875 -0.859375 Z M 2.875 -0.859375 "/></g></g></g></svg>